0
SECTION
2
HEADER
9
$INSUNITS
70
4
9
$ACADVER
1
AC1014
9
$HANDSEED
5
FFFF
0
ENDSEC
0
SECTION
2
TABLES
0
TABLE
2
VPORT
5
8
100
AcDbSymbolTable
0
ENDTAB
0
TABLE
2
LTYPE
5
5
100
AcDbSymbolTable
0
LTYPE
5
14
100
AcDbSymbolTableRecord
100
AcDbLinetypeTableRecord
2
BYBLOCK
70
0
0
LTYPE
5
15
100
AcDbSymbolTableRecord
100
AcDbLinetypeTableRecord
2
BYLAYER
70
0
0
ENDTAB
0
TABLE
2
LAYER
5
2
100
AcDbSymbolTable
70
2
0
LAYER
5
50
100
AcDbSymbolTableRecord
100
AcDbLayerTableRecord
2
0
70
0
6
CONTINUOUS
0
ENDTAB
0
TABLE
2
STYLE
5
3
100
AcDbSymbolTable
70
1
0
STYLE
5
11
100
AcDbSymbolTableRecord
100
AcDbTextStyleTableRecord
2
STANDARD
70
0
0
ENDTAB
0
TABLE
2
VIEW
5
6
100
AcDbSymbolTable
70
0
0
ENDTAB
0
TABLE
2
UCS
5
7
100
AcDbSymbolTable
70
0
0
ENDTAB
0
TABLE
2
APPID
5
9
100
AcDbSymbolTable
70
2
0
APPID
5
12
100
AcDbSymbolTableRecord
100
AcDbRegAppTableRecord
2
ACAD
70
0
0
ENDTAB
0
TABLE
2
DIMSTYLE
5
A
100
AcDbSymbolTable
70
1
0
ENDTAB
0
TABLE
2
BLOCK_RECORD
5
1
100
AcDbSymbolTable
70
1
0
BLOCK_RECORD
5
1F
100
AcDbSymbolTableRecord
100
AcDbBlockTableRecord
2
*MODEL_SPACE
0
BLOCK_RECORD
5
1B
100
AcDbSymbolTableRecord
100
AcDbBlockTableRecord
2
*PAPER_SPACE
0
ENDTAB
0
ENDSEC
0
SECTION
2
BLOCKS
0
BLOCK
5
20
100
AcDbEntity
100
AcDbBlockBegin
2
*MODEL_SPACE
0
ENDBLK
5
21
100
AcDbEntity
100
AcDbBlockEnd
0
BLOCK
5
1C
100
AcDbEntity
100
AcDbBlockBegin
2
*PAPER_SPACE
0
ENDBLK
5
1D
100
AcDbEntity
100
AcDbBlockEnd
0
ENDSEC
0
SECTION
2
ENTITIES
0
ARC
5
100
100
AcDbEntity
8
0
100
AcDbCircle
10
-0.99999999999994871
20
21.661583090985744
30
0
40
6.9999999999999494
210
0
220
0
230
1
100
AcDbArc
50
0
51
36.520503668183551
0
LINE
5
101
100
AcDbEntity
8
0
100
AcDbLine
10
6.0000000000000018
20
21.661583090985729
30
0
11
5.9999999999999982
21
10.661583090985724
31
0
0
LINE
5
102
100
AcDbEntity
8
0
100
AcDbLine
10
5.9999999999999982
20
10.661583090985724
30
0
11
-5.9999999999999982
21
10.661583090985719
31
0
0
LINE
5
103
100
AcDbEntity
8
0
100
AcDbLine
10
-5.9999999999999982
20
10.661583090985719
30
0
11
-6.0000000000000018
21
21.661583090985719
31
0
0
ARC
5
104
100
AcDbEntity
8
0
100
AcDbCircle
10
0.99967406880692167
20
21.661583090985715
30
0
40
6.9996740688069199
210
0
220
0
230
1
100
AcDbArc
50
143.47856840016641
51
180
0
LWPOLYLINE
5
105
100
AcDbEntity
8
0
100
AcDbPolyline
90
4
70
1
43
0.0
10
-27.182262043885999
20
-9.6087400653632411
42
0.27387084212055884
10
-22.798026230356001
20
-12.20489391151709
10
22.798026230355983
20
-12.204893911517093
42
0.27387084212055945
10
27.182262043885999
20
-9.6087400653632482
42
1.6887426837300736
0
SPLINE
5
106
100
AcDbEntity
8
0
100
AcDbSpline
70
0
71
3
72
17
73
13
74
0
42
0.000000001
43
0.0000000001
44
0.0000000001
40
-0.5859745834739547
40
-0.5859745834739547
40
-0.5859745834739547
40
-0.5859745834739547
40
-0.58239537099488903
40
-0.58239537099488903
40
-0.58239537099488903
40
-0.29119768549744451
40
-0.29119768549744451
40
-0.29119768549744451
40
0
40
0
40
0
40
0.10493125922085522
40
0.10493125922085522
40
0.10493125922085522
40
0.10493125922085522
10
-3.3922835775689588
20
31.817944069657827
30
0
10
-3.3982698152230446
20
31.811076066813747
30
0
10
-3.4042069723933484
20
31.804222264649084
30
0
10
-3.4100953424756981
20
31.797383518146383
30
0
10
-3.8881807247705256
20
31.242135683782365
30
0
10
-4.1947577450199081
20
30.613186191288481
30
0
10
-4.3563330350497083
20
29.989177504901072
30
0
10
-4.5185417216077042
20
29.362722621849258
30
0
10
-4.5335512081002607
20
28.748557441477217
30
0
10
-4.4500933035321166
20
28.192853598398031
30
0
10
-4.4200679308164093
20
27.992929875242723
30
0
10
-4.3755858900500755
20
27.789757760966921
30
0
10
-4.3150254119474543
20
27.58516625803879
30
0
0
ARC
5
107
100
AcDbEntity
8
0
100
AcDbCircle
10
-1.8707257964933888e-13
20
28.861187040519983
30
0
40
4.5000000000002895
210
0
220
-0
230
1
100
AcDbArc
50
14.615961050946849
51
138.92418383010857
0
SPLINE
5
108
100
AcDbEntity
8
0
100
AcDbSpline
70
0
71
3
72
11
73
7
74
0
42
0.000000001
43
0.0000000001
44
0.0000000001
40
-1.9994238682352026
40
-1.9994238682352026
40
-1.9994238682352026
40
-1.9994238682352026
40
-1.8945017264970165
40
-1.8945017264970165
40
-1.8945017264970165
40
-1.6021321244726145
40
-1.6021321244726145
40
-1.6021321244726145
40
-1.6021321244726145
10
4.3150411888867417
20
27.585219558824491
30
0
10
4.3755936238607305
20
27.78979311253055
30
0
10
4.4200705396719622
20
27.992947246288225
30
0
10
4.4500933035321157
20
28.192853598398031
30
0
10
4.5338870819843606
20
28.750793855261506
30
0
10
4.517760997364535
20
29.370177827793604
30
0
10
4.3543752956171664
20
29.996711502969159
30
0
0
CIRCLE
5
109
100
AcDbEntity
8
0
100
AcDbCircle
10
0
20
0
30
0
40
1.6000000000000003
210
0
220
-0
230
1
0
SPLINE
5
110
100
AcDbEntity
8
0
100
AcDbSpline
70
0
71
3
72
12
73
8
74
0
42
0.000000001
43
0.0000000001
44
0.0000000001
40
0
40
0
40
0
40
0
40
0.078128894677385916
40
0.078128894677385916
40
0.13178503659743734
40
0.13178503659743734
40
0.18544117851748937
40
0.18544117851748937
40
0.18544117851748937
40
0.18544117851748937
10
4.6255076355707301
20
25.827355989516736
30
0
10
4.4705232393615688
20
26.036648700738798
30
0
10
4.3579000989327241
20
26.274212358488398
30
0
10
4.2500776232107018
20
26.700057715221639
30
0
10
4.2296331049958376
20
26.878548125256401
30
0
10
4.2367496469502104
20
27.236184939756718
30
0
10
4.2642786579220076
20
27.413720734328777
30
0
10
4.315041191037353
20
27.585219566090231
30
0
0
SPLINE
5
111
100
AcDbEntity
8
0
100
AcDbSpline
70
0
71
3
72
12
73
8
74
0
42
0.000000001
43
0.0000000001
44
0.0000000001
40
0
40
0
40
0
40
0
40
0.078128894677385333
40
0.078128894677385333
40
0.13178789587391723
40
0.13178789587391723
40
0.18544689707044848
40
0.18544689707044848
40
0.18544689707044848
40
0.18544689707044848
10
-4.3150254140984288
20
27.585166265305432
30
0
10
-4.2411068492044688
20
27.335447127466502
30
0
10
-4.2166706866274861
20
27.073677501264505
30
0
10
-4.2612387989895186
20
26.636651173538407
30
0
10
-4.3031737682597768
20
26.461946468450424
30
0
10
-4.4323745298772215
20
26.128366587538817
30
0
10
-4.5190584072199211
20
25.970993842006393
30
0
10
-4.6255041699177877
20
25.827253127379151
30
0
0
LWPOLYLINE
5
112
100
AcDbEntity
8
0
100
AcDbPolyline
90
8
70
1
43
0.0
10
-9.8964466094067269
20
-4.25
10
-12.103553390593277
20
-4.25
10
-13.250000000000002
20
-3.1035533905932748
10
-13.250000000000004
20
11.10355339059327
10
-12.103553390593277
20
12.249999999999998
10
-9.8964466094067269
20
12.249999999999998
10
-8.75
20
11.103553390593275
10
-8.75
20
-3.1035533905932744
0
LWPOLYLINE
5
113
100
AcDbEntity
8
0
100
AcDbPolyline
90
8
70
1
43
0.0
10
13.250000000000002
20
11.103553390593273
10
13.250000000000002
20
-3.1035533905932766
10
12.103553390593277
20
-4.25
10
9.8964466094067269
20
-4.25
10
8.75
20
-3.103553390593274
10
8.75
20
11.10355339059327
10
9.8964466094067269
20
12.249999999999998
10
12.103553390593277
20
12.249999999999998
0
ENDSEC
0
SECTION
2
OBJECTS
0
DICTIONARY
5
C
100
AcDbDictionary
3
ACAD_GROUP
350
D
3
ACAD_MLINESTYLE
350
17
0
DICTIONARY
5
D
100
AcDbDictionary
0
DICTIONARY
5
1A
330
C
100
AcDbDictionary
0
DICTIONARY
5
17
100
AcDbDictionary
0
ENDSEC
0
EOF
